<svg width="20" height="20" viewBox="0 0 20 20" fill="none" xmlns="http://www.w3.org/2000/svg">
<path fill-rule="evenodd" clip-rule="evenodd" d="M6.66797 15C6.66797 14.5391 7.04297 14.168 7.5 14.168H12.5C12.9609 14.168 13.332 14.543 13.332 15C13.332 15.457 12.957 15.832 12.5 15.832H7.5C7.03906 15.832 6.66797 15.4609 6.66797 15ZM3.33203 10C3.33203 9.53906 3.70703 9.16797 4.16406 9.16797H15.832C16.293 9.16797 16.6641 9.54297 16.6641 10C16.6641 10.457 16.2891 10.832 15.832 10.832H4.16797C3.70703 10.832 3.33203 10.4609 3.33203 10ZM0 5C0 4.53906 0.375 4.16797 0.832031 4.16797H19.1641C19.625 4.16797 19.9961 4.54297 19.9961 5C19.9961 5.45703 19.6211 5.83203 19.1641 5.83203H0.832031C0.375 5.83203 0 5.46094 0 5Z" fill="#969DA6"/>
</svg>
